<?xml version="1.0" standalone="no"?>
<!DOCTYPE svg PUBLIC "-//W3C//DTD SVG 20010904//EN"
 "http://www.w3.org/TR/2001/REC-SVG-20010904/DTD/svg10.dtd">
<svg version="1.0" xmlns="http://www.w3.org/2000/svg"
 width="512.000000pt" height="512.000000pt" viewBox="0 0 512.000000 512.000000"
 preserveAspectRatio="xMidYMid meet">

<g transform="translate(0.000000,512.000000) scale(0.100000,-0.100000)"
fill="#000000" stroke="none">
<path d="M2315 5109 c-506 -52 -1014 -264 -1381 -576 -28 -23 -56 -43 -61 -43
-5 0 -20 12 -34 26 -27 30 -93 63 -126 64 -39 0 -102 -31 -123 -61 -28 -39
-231 -703 -231 -757 -1 -78 55 -141 132 -149 34 -4 70 5 159 36 149 54 180 90
129 155 -27 35 -54 33 -168 -9 -52 -19 -96 -33 -99 -30 -5 4 161 565 190 644
8 23 10 22 72 -38 88 -84 105 -83 211 10 485 424 1148 638 1795 578 680 -62
1300 -411 1711 -962 527 -705 625 -1620 262 -2435 -38 -85 -45 -108 -37 -130
13 -37 55 -59 91 -47 71 25 225 442 277 750 120 714 -72 1458 -523 2020 -96
120 -274 299 -392 394 -361 292 -775 473 -1249 546 -126 19 -477 28 -605 14z"/>
<path d="M2345 4789 c-114 -11 -279 -42 -392 -74 -318 -91 -663 -280 -865
-475 -78 -76 -78 -92 7 -172 36 -34 65 -65 65 -69 0 -4 -24 -15 -52 -24 -108
-35 -146 -56 -158 -85 -16 -38 4 -81 43 -94 23 -8 47 -4 129 24 143 49 188 92
188 180 0 49 -11 73 -57 121 l-34 36 48 40 c142 119 390 257 588 329 117 42
302 87 430 106 131 19 445 16 580 -5 328 -51 636 -178 917 -377 107 -76 313
-270 400 -379 239 -297 396 -657 449 -1031 17 -122 17 -438 0 -560 -119 -847
-736 -1536 -1563 -1745 -475 -121 -983 -67 -1425 150 -658 323 -1091 949
-1163 1684 -20 202 -8 400 36 620 27 132 26 168 -6 231 -66 128 -230 166 -350
79 -67 -49 -98 -136 -137 -389 -25 -163 -24 -538 1 -705 24 -156 78 -371 128
-510 86 -238 250 -531 408 -730 330 -414 819 -736 1328 -875 898 -244 1848 16
2499 683 140 144 313 366 313 402 0 37 -37 75 -74 75 -38 0 -50 -12 -156 -155
-98 -133 -317 -350 -460 -456 -310 -232 -617 -369 -990 -443 -521 -104 -1074
-27 -1548 216 -979 500 -1497 1590 -1266 2661 24 109 66 146 131 115 52 -25
56 -52 29 -190 -180 -897 202 -1808 969 -2310 1035 -679 2417 -388 3101 653
173 262 289 570 341 899 24 158 24 481 0 638 -185 1188 -1248 2023 -2432 1911z"/>
<path d="M1895 3898 c-166 -31 -325 -191 -343 -343 -6 -53 21 -85 71 -85 42 0
61 21 84 89 37 116 148 195 273 194 113 0 199 -53 249 -155 76 -151 10 -328
-146 -393 -17 -7 -57 -17 -87 -20 -43 -6 -61 -13 -76 -33 -45 -56 -7 -108 88
-122 84 -12 143 -42 196 -101 54 -60 76 -121 76 -209 0 -202 -200 -345 -396
-284 -113 35 -214 167 -214 279 0 78 -85 115 -130 58 -19 -24 -21 -36 -17 -89
25 -264 279 -456 538 -405 165 33 293 145 350 307 17 48 20 77 17 160 -3 93
-6 107 -40 176 -26 51 -56 92 -97 131 l-60 57 53 53 c30 30 67 81 87 122 33
67 34 74 34 185 0 111 -1 118 -34 185 -64 130 -187 222 -327 245 -68 11 -81
11 -149 -2z"/>
<path d="M3025 3900 c-209 -43 -368 -212 -395 -420 -5 -41 -9 -221 -9 -400 0
-179 4 -359 9 -400 18 -137 99 -268 212 -343 288 -189 666 -45 754 288 20 75
20 838 -1 914 -66 249 -322 411 -570 361z m238 -174 c73 -35 148 -116 175
-189 21 -56 22 -73 22 -457 0 -461 -1 -465 -91 -565 -73 -79 -141 -109 -249
-109 -71 -1 -94 4 -142 26 -107 50 -179 146 -198 264 -13 77 -13 691 0 768 23
141 123 252 257 286 62 15 165 4 226 -24z"/>
<path d="M1520 1954 c-51 -21 -50 -17 -50 -330 l0 -293 26 -20 c23 -18 41 -21
124 -21 171 0 251 43 312 168 30 61 33 74 33 162 0 116 -20 180 -75 243 -60
68 -112 88 -244 93 -61 2 -118 1 -126 -2z m236 -168 c42 -28 59 -73 59 -161 0
-126 -47 -185 -147 -185 l-48 0 0 186 0 187 56 -6 c30 -3 66 -13 80 -21z"/>
<path d="M2263 1938 c-26 -29 -223 -547 -223 -587 0 -32 38 -71 70 -71 29 0
66 37 84 85 l18 46 110 -3 110 -3 18 -44 c18 -48 51 -81 81 -81 31 0 72 43 71
76 -1 16 -42 137 -92 269 -111 295 -119 314 -141 326 -32 17 -84 10 -106 -13z
m101 -355 c7 -22 5 -23 -43 -23 -28 0 -51 1 -51 3 0 5 42 112 47 121 6 8 29
-43 47 -101z"/>
<path d="M2621 1934 c-12 -15 -21 -34 -21 -44 0 -9 38 -76 85 -149 l85 -132 0
-129 c0 -75 5 -140 11 -154 23 -51 103 -55 128 -7 6 11 11 79 11 153 l0 133
85 129 c53 80 85 140 85 156 0 35 -38 70 -76 70 -36 0 -54 -18 -118 -119 -26
-40 -49 -72 -51 -70 -2 3 -27 40 -55 84 -29 44 -59 86 -68 93 -28 22 -78 15
-101 -14z"/>
<path d="M3327 1950 c-73 -22 -136 -105 -137 -178 0 -40 24 -99 52 -129 11
-12 55 -36 97 -53 140 -58 161 -70 161 -93 0 -31 -11 -44 -45 -57 -43 -16
-100 -3 -151 36 -52 40 -86 43 -119 9 -51 -50 -17 -113 88 -164 111 -54 214
-50 297 10 103 75 110 230 14 307 -18 15 -80 46 -136 68 -58 24 -104 48 -106
57 -10 49 85 63 157 22 55 -32 85 -32 118 1 20 20 24 31 19 57 -16 82 -191
142 -309 107z"/>
</g>
</svg>
