<?xml version="1.0" standalone="no"?>
<!DOCTYPE svg PUBLIC "-//W3C//DTD SVG 20010904//EN"
 "http://www.w3.org/TR/2001/REC-SVG-20010904/DTD/svg10.dtd">
<svg version="1.0" xmlns="http://www.w3.org/2000/svg"
 width="512.000000pt" height="512.000000pt" viewBox="0 0 512.000000 512.000000"
 preserveAspectRatio="xMidYMid meet">

<g transform="translate(0.000000,512.000000) scale(0.100000,-0.100000)"
fill="#000000" stroke="none">
<path d="M345 5106 c-84 -21 -147 -57 -211 -121 -98 -97 -134 -197 -134 -370
l0 -95 2260 0 2260 0 0 95 c0 172 -36 272 -135 371 -65 65 -136 105 -223 123
-81 17 -3749 14 -3817 -3z"/>
<path d="M0 4070 l0 -150 2260 0 2260 0 0 150 0 150 -2260 0 -2260 0 0 -150z"/>
<path d="M0 2775 c0 -591 3 -860 11 -897 37 -172 175 -310 347 -347 37 -8 311
-11 916 -11 l864 0 6 34 c11 57 56 158 102 228 58 86 176 197 257 239 l64 33
6 120 c17 311 133 575 351 792 222 221 483 336 796 350 143 7 265 -9 402 -52
100 -32 257 -110 339 -170 l59 -44 0 285 0 285 -2260 0 -2260 0 0 -845z m1740
225 c45 -23 80 -80 80 -130 0 -50 -35 -107 -80 -130 -38 -19 -58 -20 -531 -20
-490 0 -491 0 -531 22 -101 57 -102 194 -2 254 l39 24 493 0 c474 0 494 -1
532 -20z m0 -600 c45 -23 80 -80 80 -130 0 -50 -35 -107 -80 -130 -38 -19 -58
-20 -531 -20 -490 0 -491 0 -531 22 -101 57 -102 194 -2 254 l39 24 493 0
c474 0 494 -1 532 -20z"/>
<path d="M3590 3001 c-394 -86 -680 -408 -716 -806 l-7 -75 300 0 299 0 12 58
c15 72 58 142 113 182 179 129 426 34 471 -182 l12 -58 299 0 300 0 -7 75
c-35 382 -303 699 -671 796 -116 30 -294 35 -405 10z"/>
<path d="M2765 1806 c-84 -21 -147 -57 -211 -121 -65 -65 -105 -136 -123 -223
-15 -74 -15 -1031 0 -1104 37 -172 175 -310 347 -347 74 -15 1909 -16 1984 0
170 36 311 178 347 347 15 74 15 1032 0 1104 -37 172 -176 311 -347 347 -80
17 -1929 14 -1997 -3z m1075 -606 c71 -36 80 -69 80 -290 0 -221 -9 -254 -80
-290 -51 -26 -93 -25 -142 2 -71 40 -78 68 -78 290 1 220 7 243 76 284 48 29
92 30 144 4z"/>
</g>
</svg>
