<?xml version="1.0" standalone="no"?>
<!DOCTYPE svg PUBLIC "-//W3C//DTD SVG 20010904//EN"
 "http://www.w3.org/TR/2001/REC-SVG-20010904/DTD/svg10.dtd">
<svg version="1.0" xmlns="http://www.w3.org/2000/svg"
 width="256.000000pt" height="256.000000pt" viewBox="0 0 256.000000 256.000000"
 preserveAspectRatio="xMidYMid meet">

<g transform="translate(0.000000,256.000000) scale(0.100000,-0.100000)"
fill="#000000" stroke="none">
<path d="M672 2359 c-84 -25 -145 -135 -121 -222 16 -60 39 -88 122 -148 113
-82 120 -82 -86 0 -110 44 -147 40 -133 -13 4 -18 37 -35 178 -92 l173 -69
-300 -5 c-165 -3 -301 -7 -302 -8 -1 -1 -9 -15 -18 -32 -23 -44 -23 -771 1
-794 8 -9 21 -16 28 -16 34 0 36 19 36 397 l0 373 775 0 775 0 2 -376 c3 -352
4 -378 21 -388 15 -9 22 -7 38 13 10 13 19 34 19 47 l0 24 239 0 c145 0 251
-4 268 -11 29 -11 83 -57 83 -71 0 -4 -27 -8 -61 -8 -92 0 -99 -7 -99 -93 0
-108 39 -156 128 -157 l42 0 0 -90 0 -90 -54 0 c-47 0 -56 3 -61 21 -12 37
-78 101 -130 125 -97 46 -211 21 -286 -63 -21 -23 -40 -50 -44 -62 -17 -54
-25 -10 -25 132 0 167 -7 192 -51 185 l-24 -3 -3 -167 -2 -168 -420 0 c-417 0
-419 0 -425 21 -11 33 -75 98 -119 122 -54 28 -165 30 -217 4 -45 -23 -104
-80 -121 -118 l-13 -29 -117 0 -118 0 0 45 0 45 89 0 c109 0 121 4 121 41 0
21 -6 30 -23 34 -12 3 -112 4 -221 3 -177 -3 -200 -5 -210 -20 -8 -13 -8 -23
0 -35 9 -14 28 -19 88 -21 l76 -3 0 -50 c0 -52 12 -85 39 -106 11 -8 58 -12
137 -13 l121 0 7 -41 c22 -140 161 -239 295 -211 103 22 179 96 202 198 l12
54 447 0 447 0 7 -41 c15 -94 87 -177 177 -203 66 -20 82 -20 148 0 90 26 162
109 177 203 l7 41 71 0 c43 0 77 5 84 12 16 16 17 471 1 519 -7 19 -23 49 -36
67 -24 32 -89 72 -116 72 -10 0 -24 39 -46 127 -31 123 -32 128 -15 158 32 60
-1 158 -69 209 -26 19 -44 21 -207 24 l-178 3 -4 59 c-3 45 -10 66 -28 85
l-23 25 -296 0 -296 1 135 54 c184 74 225 96 225 119 0 10 -9 24 -20 32 -17
11 -37 6 -152 -41 -73 -29 -133 -52 -133 -50 0 3 26 22 58 44 70 48 127 106
141 144 53 141 -75 286 -217 247 -87 -23 -137 -96 -212 -308 -18 -51 -36 -89
-40 -85 -4 4 -19 44 -34 88 -41 120 -102 240 -136 269 -50 41 -112 54 -178 35z
m103 -83 c26 -11 41 -29 63 -73 25 -50 112 -273 112 -288 0 -13 -23 0 -122 64
-187 121 -227 173 -192 246 14 31 62 64 92 65 7 0 28 -6 47 -14z m618 -26 c31
-35 37 -92 12 -127 -30 -43 -289 -222 -302 -209 -9 8 82 250 113 303 45 77
123 92 177 33z m834 -705 c11 -8 26 -28 31 -45 l11 -30 -195 0 -194 0 0 45 0
45 163 0 c128 0 167 -3 184 -15z m39 -287 l32 -128 -209 0 -209 0 0 130 0 130
177 -2 177 -3 32 -127z m214 -423 c0 -44 -1 -45 -33 -45 -42 0 -57 15 -57 57
0 32 1 33 45 33 l45 0 0 -45z m-1680 -237 c49 -25 86 -73 96 -123 14 -79 -47
-174 -126 -195 -163 -44 -288 151 -177 277 58 66 130 80 207 41z m1435 -13
c41 -31 75 -94 75 -140 0 -42 -32 -107 -65 -133 -131 -103 -323 21 -276 179
35 118 172 167 266 94z"/>
<path d="M669 501 c-35 -36 -37 -70 -5 -107 50 -58 140 -24 140 52 0 28 -7 42
-28 60 -37 32 -71 30 -107 -5z"/>
<path d="M2078 500 c-25 -26 -29 -36 -24 -63 9 -45 39 -71 81 -71 42 0 72 26
81 71 5 27 1 37 -24 63 -19 18 -41 30 -57 30 -16 0 -38 -12 -57 -30z"/>
<path d="M442 1458 c-13 -13 -18 -360 -6 -392 7 -19 45 -21 62 -4 7 7 12 42
12 85 l0 73 55 0 c43 0 56 4 65 19 13 25 13 27 -6 45 -10 10 -33 16 -65 16
l-49 0 0 45 0 44 76 3 c60 2 79 7 88 21 8 12 8 22 0 35 -9 14 -29 17 -115 20
-73 2 -108 -1 -117 -10z"/>
<path d="M741 1456 c-8 -9 -11 -73 -9 -207 l3 -194 24 -3 c34 -5 51 22 51 80
0 47 1 48 30 48 25 0 36 -9 70 -61 45 -65 63 -78 89 -62 27 17 24 40 -10 89
-26 38 -30 50 -20 63 48 67 52 77 48 124 -8 94 -67 137 -188 137 -53 0 -80 -4
-88 -14z m179 -86 c24 -24 26 -57 4 -88 -12 -18 -25 -22 -65 -22 l-49 0 0 65
0 65 45 0 c32 0 51 -6 65 -20z"/>
<path d="M1082 1458 c-17 -17 -17 -379 0 -396 16 -16 210 -16 226 0 18 18 14
46 -7 58 -11 5 -49 10 -85 10 l-66 0 0 45 0 45 55 0 c43 0 56 4 65 19 13 25
13 27 -6 45 -10 10 -33 16 -65 16 l-49 0 0 45 0 44 76 3 c60 2 79 7 88 21 8
12 8 22 0 35 -9 14 -29 17 -115 20 -73 2 -108 -1 -117 -10z"/>
<path d="M1382 1458 c-17 -17 -17 -379 0 -396 16 -16 210 -16 226 0 18 18 14
46 -7 58 -11 5 -49 10 -85 10 l-66 0 0 45 c0 41 2 45 24 45 39 0 56 11 56 34
0 30 -18 46 -52 46 -26 0 -28 2 -28 45 l0 44 76 3 c60 2 79 7 88 21 8 12 8 22
0 35 -9 14 -29 17 -115 20 -73 2 -108 -1 -117 -10z"/>
<path d="M97 863 c-11 -11 -8 -48 5 -61 9 -9 85 -12 279 -12 230 0 270 2 283
16 9 8 16 21 16 28 0 33 -22 36 -300 36 -152 0 -280 -3 -283 -7z"/>
<path d="M1042 688 c-15 -15 -15 -41 0 -56 9 -9 94 -12 319 -12 169 0 314 3
323 6 21 8 21 60 0 68 -9 3 -154 6 -323 6 -225 0 -310 -3 -319 -12z"/>
</g>
</svg>
