<?xml version="1.0" standalone="no"?>
<!DOCTYPE svg PUBLIC "-//W3C//DTD SVG 20010904//EN"
 "http://www.w3.org/TR/2001/REC-SVG-20010904/DTD/svg10.dtd">
<svg version="1.0" xmlns="http://www.w3.org/2000/svg"
 width="512.000000pt" height="512.000000pt" viewBox="0 0 512.000000 512.000000"
 preserveAspectRatio="xMidYMid meet">

<g transform="translate(0.000000,512.000000) scale(0.100000,-0.100000)"
fill="#000000" stroke="none">
<path d="M2365 5114 c-368 -39 -691 -136 -980 -296 -118 -66 -149 -131 -106
-223 31 -68 301 -529 324 -554 25 -27 76 -51 109 -51 12 0 80 27 150 61 263
124 431 163 698 163 142 0 196 -4 287 -22 143 -29 287 -79 424 -148 60 -30
120 -54 134 -54 36 0 86 23 112 51 23 25 293 486 324 554 41 89 13 154 -93
216 -220 129 -550 241 -838 284 -101 16 -459 28 -545 19z"/>
<path d="M1009 4153 c-166 -172 -283 -338 -384 -548 -79 -163 -155 -398 -180
-550 l-6 -40 143 3 c79 2 148 5 154 6 6 2 16 30 23 62 37 169 138 413 233 563
57 91 148 210 220 287 l60 64 -73 130 c-41 71 -77 130 -80 130 -3 0 -53 -48
-110 -107z"/>
<path d="M3921 4129 l-74 -130 50 -52 c207 -214 382 -532 454 -822 12 -50 25
-93 28 -97 3 -3 73 -8 154 -10 l148 -3 -6 40 c-4 22 -18 83 -31 136 -69 280
-198 548 -372 779 -54 72 -259 290 -271 290 -3 0 -39 -59 -80 -131z"/>
<path d="M2395 3709 c-236 -34 -471 -154 -646 -328 -451 -451 -451 -1173 0
-1622 179 -178 395 -287 638 -324 216 -33 428 -5 630 82 l82 35 219 -66 c120
-36 231 -66 246 -66 70 0 146 76 146 146 0 15 -30 126 -66 247 l-66 219 36 82
c182 425 96 910 -221 1247 -251 266 -636 400 -998 348z m555 -707 c50 -25 80
-75 80 -132 0 -57 -30 -107 -80 -132 -31 -16 -72 -18 -390 -18 -318 0 -359 2
-390 18 -107 53 -107 211 0 264 31 16 72 18 390 18 318 0 359 -2 390 -18z m0
-600 c50 -25 80 -75 80 -132 0 -57 -30 -107 -80 -132 -31 -16 -72 -18 -390
-18 -318 0 -359 2 -390 18 -107 53 -107 211 0 264 31 16 72 18 390 18 318 0
359 -2 390 -18z"/>
<path d="M455 2710 c-194 -40 -352 -179 -417 -368 -23 -66 -23 -73 -23 -522 0
-449 0 -456 23 -522 57 -164 180 -288 348 -350 54 -20 82 -22 330 -26 260 -3
273 -3 313 17 27 14 48 35 61 61 20 38 20 57 20 820 0 763 0 782 -20 820 -13
26 -34 47 -60 60 -36 19 -57 20 -287 19 -136 -1 -266 -5 -288 -9z"/>
<path d="M4088 2700 c-23 -12 -46 -36 -58 -60 -20 -38 -20 -58 -20 -820 0
-763 0 -782 20 -820 31 -60 78 -80 190 -80 l90 0 0 -53 c0 -77 -26 -144 -75
-192 -73 -73 -84 -75 -534 -75 l-396 0 0 -151 0 -150 435 3 435 3 67 26 c220
85 350 263 365 497 6 90 7 93 32 97 217 43 375 176 443 373 23 66 23 73 23
522 0 449 0 456 -23 522 -57 164 -180 288 -348 350 -54 20 -80 22 -334 25
-260 3 -277 2 -312 -17z"/>
<path d="M2455 886 c-84 -21 -147 -57 -211 -121 -177 -176 -177 -453 1 -630
258 -259 695 -118 757 244 24 141 -22 281 -127 387 -112 113 -269 158 -420
120z"/>
</g>
</svg>
